# xmcd CD database file
#
# Track frame offsets:
#	150
#	23617
#	49499
#	86168
#	108513
#	135356
#	164782
#	180476
#	211632
#	234383
#	246228
#
# Disc length: 3410 seconds
#
# Revision: 0
# Processed by: cddbd v1.4PL0 Copyright (c) Steve Scherf et al.
# Submitted via: CDex 1.51
#
DISCID=8f0d500b
DTITLE=C.I. Williams - When Alto was King
DYEAR=1997
DGENRE=Jazz
TTITLE0=You'd Be So Nice To Come Home To
TTITLE1=Punkin Juice
TTITLE2='Round Midnight
TTITLE3=Catfish Sammich
TTITLE4=Misty
TTITLE5=Lover Man
TTITLE6=Because of You
TTITLE7=Jeep's Blues
TTITLE8=I'll Close My Eyes
TTITLE9=Avalon
TTITLE10=Precious Lord
EXTD=YEAR: 1997
EXTT0=
EXTT1=
EXTT2=
EXTT3=
EXTT4=
EXTT5=
EXTT6=
EXTT7=
EXTT8=
EXTT9=
EXTT10=
PLAYORDER=
